<?xml version="1.0" encoding="utf-8"?>
<!-- Generator: Adobe Illustrator 25.2.1, SVG Export Plug-In . SVG Version: 6.00 Build 0)  -->
<svg version="1.1" id="Ebene_1" xmlns="http://www.w3.org/2000/svg" xmlns:xlink="http://www.w3.org/1999/xlink" x="0px" y="0px"
	 viewBox="0 0 270 26.2" style="enable-background:new 0 0 270 26.2;" xml:space="preserve">
<g>
	<path d="M25.9,7c-2.7,0-5.2,0.7-6.6,1.5c0.1,1.3,0.6,2.2,0.9,2.6c1.3-0.7,3-1.4,5.6-1.4c2.2,0,3,1.3,3,3.7v1.3l-4,0.3
		c-4.5,0.2-6.1,2.8-6.1,5.7c0,3.4,1.3,5.3,4.6,5.3c2.2,0,4.6-1.3,5.6-2.7H29v2.3c0.2,0,0.5,0.1,0.8,0.1c0.7,0,1.6-0.1,2.1-0.4V13.5
		C31.7,9.3,30.1,7,25.9,7z M28.8,20.4c-1.3,1.9-3,3.2-5,3.2c-1.5,0-2.3-0.8-2.3-2.7c0-1.6,0.9-3.3,3.9-3.4l3.5-0.1v3H28.8z
		 M41.2,23.3c1.9,0,2.9-0.9,2.9-2.6c0-1.2-0.8-1.8-2.1-2.3l-2.6-1.2c-1.9-0.8-3.5-2.1-3.5-4.7C36,9.4,38.4,7,42.2,7
		c2.1,0,3.6,0.5,4.7,1.1c0,0.8-0.4,2-0.7,2.7c-0.6-0.4-2.8-1.1-4-1.1c-2.3,0-3.2,1.2-3.2,2.8c0,1.1,0.7,1.6,1.8,2.1l2.8,1.3
		c2,0.9,3.6,2.1,3.6,4.9c0,3-2.2,5.3-6,5.3c-2.9,0-4.8-0.9-5.6-1.5c0.1-0.9,0.5-2.1,0.8-2.8C37.4,22.3,39.2,23.3,41.2,23.3z
		 M55.8,23.3c2,0,2.9-0.9,2.9-2.6c0-1.2-0.8-1.8-2.1-2.3L54,17.2c-1.9-0.8-3.5-2.1-3.5-4.7C50.5,9.3,53,7,56.7,7
		c2.1,0,3.6,0.5,4.7,1.1c0,0.8-0.4,2-0.7,2.7c-0.6-0.4-2.8-1.1-4-1.1c-2.3,0-3.2,1.2-3.2,2.8c0,1.1,0.7,1.6,1.8,2.1l2.8,1.3
		c2,0.9,3.6,2.1,3.6,4.9c0,3-2.2,5.3-6,5.3c-2.9,0-4.8-0.9-5.6-1.5c0.1-0.9,0.5-2.1,0.8-2.8C51.9,22.3,53.8,23.3,55.8,23.3z
		 M78.5,15.1c0-5.9-2.2-8.1-6-8.1c-4.7,0-7.5,3.9-7.5,9.6c0,6.7,2.6,9.5,7.3,9.5c2.7,0,4.9-0.7,5.9-1.4v-0.2c0-0.7-0.2-1.8-0.6-2.5
		c-1.1,0.7-3.3,1.4-5.2,1.4c-2.8,0-4.3-1.9-4.5-5.7l10.4-0.2C78.5,16.6,78.5,15.8,78.5,15.1z M68.1,15.2c0.4-3.7,1.8-5.6,4.5-5.6
		c2,0,3.2,1.1,3.2,5.5L68.1,15.2z M85.9,25.9c-0.4,0.2-1.3,0.4-2.1,0.4c-0.4,0-0.7,0-0.8-0.1V0.5C83.6,0.1,84.3,0,85,0
		c0.4,0,0.7,0,0.9,0.1V25.9z M5,11.4c-0.5,0.7-1.3,1.3-1.8,1.5V0.1C2.9,0.1,2.6,0,2.2,0C1.5,0,0.6,0.1,0,0.5v25.3
		c0.2,0,0.5,0.1,0.9,0.1c0.8,0,1.9-0.1,2.2-0.4v-9.1C4,16,5,15.6,5.6,14.8l7.5,11.1c0.2,0,0.7,0.1,1.1,0.1c0.9,0,1.9-0.1,2.7-0.4
		l-9-13l8.6-11.9c-0.8-0.4-1.5-0.6-2.3-0.6c-0.4,0-0.8,0-1.2,0.1L5,11.4z"/>
	<g>
		<path d="M124.9,16.5c-0.2,0.1-0.8,0.2-1.3,0.2c-0.2,0-0.4,0-0.5,0v-1.5c-0.7,0.8-1.6,1.8-3.2,1.8c-2.6,0-3.7-2.2-3.7-5.5
			c0-3.4,2-6,4.5-6c0.9,0,1.6,0.2,2.5,0.7V0.5c0.4-0.2,0.8-0.2,1.3-0.2c0.2,0,0.4,0,0.6,0v16.3L124.9,16.5L124.9,16.5z M118.1,11.2
			c0,2.5,0.7,3.9,2.1,3.9c1.2,0,2.2-0.8,2.9-1.8V7.6c-0.6-0.4-1.3-0.7-2.2-0.7C118.8,6.9,118.1,9.3,118.1,11.2z"/>
		<path d="M136.5,11c0,3.4-1.4,5.7-4.6,5.7s-4.6-2.3-4.6-5.7s1.5-5.7,4.6-5.7C134.9,5.3,136.5,7.6,136.5,11z M134.7,11
			c0-2.5-0.9-4.1-2.8-4.1c-1.9,0-2.8,1.6-2.8,4.1s0.9,4.1,2.8,4.1S134.7,13.5,134.7,11z"/>
		<path d="M143.1,16.9c-2.8,0-4.6-1.6-4.6-5.7c0-3.7,1.9-5.7,4.6-5.7c1.2,0,2.2,0.2,2.8,0.6c0,0.5-0.1,1.1-0.4,1.5
			c-0.7-0.2-1.4-0.5-2.3-0.5c-1.8,0-2.7,1.4-2.7,4.1c0,2.9,0.8,4.1,2.7,4.1c0.9,0,2-0.4,2.5-0.7c0.2,0.5,0.4,1.1,0.4,1.5
			C145.1,16.5,144.1,16.9,143.1,16.9z"/>
		<path d="M150.3,13.2c0,1.6,0.5,2,1.5,2c1.4,0,2.6-1.3,3.2-2V5.7c0.4-0.1,0.8-0.2,1.3-0.2c0.2,0,0.4,0,0.5,0v11
			c-0.2,0.1-0.8,0.2-1.3,0.2c-0.2,0-0.4,0-0.5,0V15c-0.5,0.7-1.9,2-3.6,2c-2.3,0-2.8-1.2-2.8-3.6V5.9c0.4-0.2,0.8-0.2,1.3-0.2
			c0.2,0,0.4,0,0.6,0v7.6h-0.2V13.2z"/>
		<path d="M166.3,8.9c0-1.3-0.4-2-1.5-2c-1.3,0-2.3,1.3-2.9,2v7.5c-0.2,0.1-0.8,0.2-1.3,0.2c-0.2,0-0.4,0-0.5,0V5.7
			c0.4-0.2,0.8-0.2,1.3-0.2c0.2,0,0.4,0,0.6,0v1.8c0.5-0.7,1.8-2,3.4-2s2.5,0.6,2.7,1.9c0.6-0.7,2-1.9,3.6-1.9
			c2.3,0,2.9,1.2,2.9,3.6v7.5c-0.2,0.1-0.8,0.2-1.3,0.2c-0.2,0-0.4,0-0.5,0V8.9c0-1.6-0.7-2-1.5-2c-1.3,0-2.3,0.9-3,1.8v7.8
			c-0.2,0.1-0.8,0.2-1.3,0.2c-0.2,0-0.4,0-0.5,0V8.9H166.3z"/>
		<path d="M185.4,11.5l-6.3,0.1c0,2.3,0.9,3.5,2.7,3.5c1.2,0,2.5-0.5,3.2-0.8c0.2,0.4,0.4,0.9,0.4,1.4v0.1c-0.6,0.4-1.9,0.8-3.5,0.8
			c-2.8,0-4.3-1.8-4.3-5.7c0-3.4,1.8-5.7,4.6-5.7c2.2,0,3.6,1.3,3.6,4.9C185.4,10.7,185.4,11.1,185.4,11.5z M183.8,10.2
			c0-2.7-0.8-3.3-2-3.3c-1.6,0-2.5,1.2-2.7,3.4L183.8,10.2z"/>
		<path d="M188.4,5.7c0.4-0.2,0.8-0.2,1.3-0.2c0.2,0,0.4,0,0.6,0v1.8c0.5-0.7,1.9-2,3.7-2c2,0,2.9,0.9,2.9,3.6v7.6
			c-0.2,0.1-0.8,0.2-1.3,0.2c-0.2,0-0.4,0-0.5,0V9c0-1.6-0.7-2-1.5-2c-1.4,0-2.7,1.3-3.3,2v7.5c-0.2,0.1-0.8,0.2-1.3,0.2
			c-0.2,0-0.4,0-0.5,0L188.4,5.7C188.5,5.7,188.4,5.7,188.4,5.7z"/>
		<path d="M202.4,7.1V14c0,0.7,0.4,1.2,1.1,1.2c0.6,0,1.2-0.1,1.9-0.5c0.2,0.5,0.4,1.1,0.4,1.5c-0.7,0.4-1.5,0.6-2.5,0.6
			c-1.6,0-2.6-0.9-2.6-2.8V7.1h-1.8c0-0.2,0-0.4,0-0.6c0-0.4,0.1-0.9,0.2-1.1h1.6V2.6c0.4-0.2,0.8-0.2,1.3-0.2c0.2,0,0.4,0,0.6,0
			v3.2h2.9c0.1,0.2,0,0.4,0,0.6c0,0.5-0.2,0.9-0.2,1.1C205.3,7.1,202.4,7.1,202.4,7.1z"/>
		<path d="M215.3,16.5c-0.2,0.1-0.8,0.2-1.3,0.2c-0.2,0-0.4,0-0.5,0v-1.5l0,0c-0.6,0.8-2,1.6-3.4,1.6c-2,0-2.8-1.2-2.8-3.2
			c0-1.8,1.1-3.4,3.7-3.4l2.5-0.1V9.4c0-1.5-0.5-2.3-1.9-2.3c-1.5,0-2.6,0.5-3.4,0.8c-0.1-0.2-0.5-0.8-0.6-1.6
			c0.8-0.5,2.3-0.9,4-0.9c2.6,0,3.5,1.4,3.5,4v7.3h0.2V16.5z M211.4,11.6c-1.8,0.1-2.3,1.1-2.3,2c0,1.2,0.5,1.6,1.4,1.6
			c1.2,0,2.2-0.8,3-2v-1.9L211.4,11.6z"/>
		<path d="M223.6,13.9c0.1,0,1.4,1.1,3.5,1.1c1.9,0,2.8-0.9,2.8-2.5c0-1.2-0.7-1.6-1.8-2.2L226,9.4c-1.6-0.7-3-1.6-3-4
			c0-2.5,1.8-4.3,4.7-4.3c2,0,3.6,0.6,3.6,0.6c0,0.7-0.1,1.3-0.4,1.8c-0.1,0-1.9-0.6-3.3-0.6c-1.6,0-2.7,0.8-2.7,2.6
			c0,1.2,0.7,1.6,1.8,2.2l2.3,1.1c1.5,0.7,2.8,1.6,2.8,4c0,2.7-2.2,4.3-4.9,4.3s-4.2-1.2-4.3-1.2C222.9,14.9,223.3,14.3,223.6,13.9z
			"/>
		<path d="M236.7,7.1V14c0,0.7,0.4,1.2,1.1,1.2c0.6,0,1.2-0.1,1.9-0.5c0.2,0.5,0.4,1.1,0.4,1.5c-0.7,0.4-1.5,0.6-2.5,0.6
			c-1.6,0-2.6-0.9-2.6-2.8V7.1h-1.8c0-0.2,0-0.4,0-0.6c0-0.4,0.1-0.9,0.2-1.1h1.6V2.6c0.4-0.2,0.8-0.2,1.3-0.2c0.2,0,0.4,0,0.6,0
			v3.2h2.9c0.1,0.2,0,0.4,0,0.6c0,0.5-0.2,0.9-0.2,1.1C239.7,7.1,236.7,7.1,236.7,7.1z"/>
		<path d="M249.7,16.5c-0.2,0.1-0.8,0.2-1.3,0.2c-0.2,0-0.4,0-0.5,0v-1.5l0,0c-0.6,0.8-2,1.6-3.4,1.6c-2,0-2.8-1.2-2.8-3.2
			c0-1.8,1.1-3.4,3.7-3.4l2.5-0.1V9.4c0-1.5-0.5-2.3-1.9-2.3c-1.5,0-2.6,0.5-3.4,0.8c-0.1-0.2-0.5-0.8-0.6-1.6
			c0.8-0.5,2.3-0.9,4-0.9c2.6,0,3.5,1.4,3.5,4v7.3h0.2V16.5z M245.9,11.6c-1.8,0.1-2.3,1.1-2.3,2c0,1.2,0.5,1.6,1.4,1.6
			c1.2,0,2.2-0.8,3-2v-1.9L245.9,11.6z"/>
		<path d="M260.9,16.5c-0.2,0.1-0.8,0.2-1.3,0.2c-0.2,0-0.4,0-0.5,0v-1.5c-0.7,0.8-1.6,1.8-3.2,1.8c-2.6,0-3.7-2.2-3.7-5.5
			c0-3.4,2-6,4.5-6c0.9,0,1.6,0.2,2.5,0.7V0.5c0.4-0.2,0.8-0.2,1.3-0.2c0.2,0,0.4,0,0.6,0v16.3L260.9,16.5L260.9,16.5z M254.1,11.2
			c0,2.5,0.7,3.9,2.1,3.9c1.2,0,2.2-0.8,2.9-1.8V7.6c-0.6-0.4-1.3-0.7-2.2-0.7C254.8,6.9,254.1,9.3,254.1,11.2z"/>
		<path d="M266.7,7.1V14c0,0.7,0.4,1.2,1.1,1.2c0.6,0,1.2-0.1,1.9-0.5c0.2,0.5,0.4,1.1,0.4,1.5c-0.7,0.4-1.5,0.6-2.5,0.6
			c-1.6,0-2.6-0.9-2.6-2.8V7.1h-1.8c0-0.2,0-0.4,0-0.6c0-0.4,0.1-0.9,0.2-1.1h1.6V2.6c0.4-0.2,0.8-0.2,1.3-0.2c0.2,0,0.4,0,0.6,0
			v3.2h2.9c0.1,0.2,0,0.4,0,0.6c0,0.5-0.2,0.9-0.2,1.1C269.6,7.1,266.7,7.1,266.7,7.1z"/>
	</g>
</g>
</svg>
