<?xml version="1.0" encoding="utf-8"?>
<!-- Generator: Adobe Illustrator 25.2.1, SVG Export Plug-In . SVG Version: 6.00 Build 0)  -->
<svg version="1.1" id="Ebene_1" xmlns="http://www.w3.org/2000/svg" xmlns:xlink="http://www.w3.org/1999/xlink" x="0px" y="0px"
	 viewBox="0 0 270 42.9" style="enable-background:new 0 0 270 42.9;" xml:space="preserve">
<g>
	<path d="M218.8,34.1c0-11.4,0-22.7,0-34l0.1-0.1c0,0,0,0,0.1,0c1.5,0,3.1,0,4.6,0c0,14.3,0,28.5,0,42.8c-1.7,0-3.5,0-5.4,0
		c-0.3-0.5-0.7-1.1-1-1.7c-0.3-0.6-0.7-1.3-1-1.9c-0.5-0.8-0.9-1.7-1.5-2.5c-0.5-0.7-0.8-1.5-1.3-2.3c-0.3-0.6-0.6-1.2-1-1.7
		c-0.3-0.5-0.6-1-0.8-1.4c-0.3-0.5-0.5-1-0.8-1.4c-0.2-0.2-0.2-0.5-0.4-0.8c-0.4-0.6-0.6-1.2-1-1.8c-0.5-0.9-1.1-1.8-1.6-2.7
		c-0.3-0.4-0.5-0.9-0.7-1.3c-0.7-1.1-1.3-2.3-1.9-3.4c-0.3-0.5-0.6-1.1-0.9-1.7c-0.6-1-1.1-2-1.7-2.9c-0.4-0.7-0.8-1.4-1.1-2.1
		c-0.5-0.9-1-1.9-1.6-2.8c-0.3-0.4-0.5-0.9-0.7-1.3c-0.4-0.6-0.8-1.3-1.1-1.9c-0.3-0.5-0.6-1-0.9-1.6c0-0.1-0.1-0.2-0.2-0.2
		c-0.4,0.2-0.6,0.6-0.9,0.9c-12.2,12.2-24.5,24.4-36.7,36.7c0,0,0,0-0.1,0c-1.6,0-3.3,0-5,0c0-11.7,0-23.4,0-35.2
		C154.1,7.9,154,8,154,8c-0.6,0.8-1.2,1.6-1.7,2.4c-0.3,0.4-0.6,0.9-0.9,1.3c-0.6,0.9-1.2,1.7-1.8,2.6c-0.8,1.1-1.6,2.3-2.4,3.4
		c-0.8,1.1-1.6,2.2-2.4,3.3c-0.1,0.1-0.2,0.2-0.3,0.3c-1.4,0-2.9,0-4.3,0c-0.3-0.6-0.5-1.2-0.9-1.8c-0.3-0.6-0.5-1.2-0.9-1.7
		s-0.6-1.2-0.9-1.8c-0.3-0.6-0.6-1.2-0.9-1.8c-0.3-0.6-0.6-1.1-0.9-1.7c-0.3-0.6-0.6-1.2-0.9-1.8c-0.3-0.6-0.6-1.2-0.9-1.8
		c-0.2-0.6-0.6-1.1-0.9-1.7c-0.3-0.6-0.6-1.2-0.9-1.8c-0.7,0.8-1.4,1.6-2.1,2.4c-0.7,0.8-1.4,1.7-2.2,2.5c-0.7,0.7-1.3,1.5-2,2.3
		c-0.6,0.8-1.4,1.5-1.9,2.4c-0.3,0.1-0.4,0.4-0.6,0.6c-0.2,0.2-0.4,0.5-0.6,0.7s-0.5,0.4-0.6,0.7c-0.5,0.6-1,1.1-1.4,1.7
		c-0.1,0.1-0.1,0.1-0.2,0.2c-0.5,0.6-1.1,1.1-1.6,1.7c-0.7,0.8-1.4,1.5-2,2.3c-0.7,0.8-1.4,1.6-2.1,2.4s-1.4,1.6-2.1,2.4
		s-1.4,1.5-2,2.3c-0.7,0.9-1.6,1.7-2.2,2.6c-0.1,0.1-0.2,0.2-0.3,0.3c-0.6,0.6-1.2,1.3-1.7,2.1c-0.1,0.1-0.1,0.1-0.2,0.2
		c-0.7,0.7-1.3,1.4-1.8,2.1c0,0.1-0.1,0.1-0.2,0.2c-0.7,0.7-1.3,1.4-1.9,2.2c-0.5,0.6-1,1.1-1.5,1.7c-0.5,0.5-0.9,1-1.3,1.5
		c-1.7,0-3.4,0-5.2,0c0-11.7,0-23.4,0-35.3c-0.5,0.7-0.9,1.3-1.4,2s-0.9,1.3-1.4,2c-0.4,0.5-0.7,1.1-1.1,1.6
		c-0.6,0.8-1.1,1.7-1.7,2.5c-0.4,0.5-0.7,1-1.1,1.6c-0.5,0.7-0.9,1.3-1.4,2c-0.4,0.6-0.8,1.2-1.2,1.8c-0.1,0.1-0.2,0.3-0.4,0.4
		c-1.4,0-2.8,0-4.2,0c-0.1-0.2-0.3-0.4-0.5-0.7c-0.4-0.9-1.1-1.7-1.5-2.6c-0.3-0.5-0.6-0.9-0.8-1.4c-0.3-0.6-0.7-1.1-1-1.7
		c-0.3-0.4-0.5-0.8-0.8-1.2c-0.5-0.9-1-1.8-1.6-2.7c-0.2-0.4-0.5-0.7-0.7-1.1c-0.4-0.7-0.8-1.3-1.2-2C72.2,7.7,72,7.4,71.7,7
		c-0.2-0.4-0.4-0.8-0.7-1.2c-0.6,0.3-0.9,1-1.2,1.5c-0.5,0.7-1,1.3-1.4,2c-0.5,0.6-0.9,1.3-1.4,2c-0.2,0.4-0.5,0.7-0.7,1
		c-0.2,0.4-0.4,0.7-0.7,1c-0.4,0.5-0.7,1-1.1,1.6c-0.5,0.7-0.9,1.3-1.4,2s-0.9,1.4-1.4,2c-0.4,0.6-0.8,1.2-1.2,1.7
		c-0.3,0.4-0.5,0.7-0.8,1.1c-0.6,0.9-1.2,1.8-1.9,2.6c-0.7,0.9-1.3,1.8-1.9,2.8c-0.6,0.8-1.1,1.6-1.7,2.5c-0.6,0.8-1,1.7-1.6,2.5
		c-0.8,1-1.4,2.1-2.2,3c-0.5,0.6-0.8,1.2-1.3,1.9s-1,1.4-1.5,2.2c-0.6,0.9-1.2,1.7-1.8,2.6c-0.3,0.5-0.6,0.9-1,1.4
		c-1.2,0-2.5,0-3.6,0c-0.5-0.3-0.9-0.5-1.4-0.7c-0.5-0.3-1-0.5-1.5-0.8s-1.1-0.4-1.5-0.9c-0.9-0.4-1.8-0.9-2.7-1.4s-1.9-0.9-2.8-1.5
		c-0.9-0.6-2-1-3-1.6c-0.7-0.4-1.3-0.8-2-1.1c-0.3-0.1-0.5-0.3-0.8-0.4C25,33.9,24,33.5,23.2,33c-0.7-0.4-1.4-0.7-2-1.2
		c-0.3-0.2-0.7-0.3-1-0.5c-0.7-0.4-1.5-0.7-2.1-1.2c-0.6-0.4-1.3-0.7-1.9-1.1c-0.3-0.2-0.7-0.4-1.1-0.6c-1.6-0.8-3.1-1.7-4.7-2.5
		c-1-0.5-1.9-1-2.9-1.6c-0.9-0.5-1.8-0.9-2.8-1.5c0,6.6,0,13.2,0,19.9c-1.6,0-3.2,0-4.8,0C0,28.6,0,14.3,0,0c1.6,0,3.1,0,4.7,0
		c0,4.5,0,8.9,0,13.4c0.8-0.3,1.5-0.9,2.4-1.1c0.3-0.4,0.8-0.5,1.2-0.7c0.8-0.4,1.6-0.7,2.4-1.2c0.5,0,0.8-0.6,1.3-0.5
		c0.6-0.5,1.4-0.7,2-1s1.1-0.7,1.8-0.8c0.6-0.5,1.4-0.7,2.1-1.1c0.7-0.3,1.4-0.6,2.1-1c0.4-0.2,0.9-0.4,1.3-0.6
		c0.5-0.3,1.1-0.4,1.5-0.7c0.5-0.3,1-0.5,1.5-0.7c0.5-0.2,1-0.4,1.4-0.7c0.6-0.3,1.2-0.6,1.8-0.9c0.6-0.3,1.1-0.6,1.7-0.9
		c0.5-0.2,1-0.5,1.6-0.7c0.5-0.2,1-0.5,1.5-0.8c0.2,0.1,0.3,0,0.5,0c0,1.8,0,3.5,0,5.2C32,5.6,31.2,6,30.4,6.4
		c-1.5,0.7-2.9,1.4-4.4,2.1c-1.4,0.7-2.9,1.4-4.3,2.1c-1.6,0.8-3.3,1.6-4.9,2.4c-1.5,0.7-3,1.5-4.6,2.2c-1.4,0.7-2.7,1.3-4.1,2
		c-0.3,0.2-0.7,0.4-1,0.5C6.8,17.9,6.4,18,6,18.1c0.1,0.3,0.3,0.2,0.5,0.3c0.2,0,0.3,0.2,0.5,0.3c1,0.5,2,1,3,1.6
		c1.1,0.6,2.2,1.2,3.3,1.8c0.5,0.3,1.1,0.5,1.6,0.8c0.9,0.5,1.9,1,2.8,1.6c0.7,0.4,1.3,0.7,2,1.1c0.9,0.5,1.8,1,2.7,1.5
		c0.2,0.1,0.5,0.2,0.7,0.4c0.9,0.5,1.8,0.9,2.7,1.4c0.5,0.3,1,0.5,1.5,0.8s1.1,0.4,1.5,0.9c0.8,0.3,1.5,0.8,2.3,1.2
		c0.8,0.4,1.7,0.8,2.4,1.4c0.3,0.2,0.7,0.3,1,0.5c1.5,0.7,2.9,1.6,4.3,2.3c0.6,0.3,1.1,0.6,1.7,0.9c0.7,0.3,1.3,0.7,2,1.1
		c0.2-0.2,0.3-0.4,0.5-0.6c0.5-0.8,1.2-1.6,1.7-2.4c0.4-0.7,1-1.3,1.4-2c0.3-0.6,0.8-1.2,1.2-1.7c0.2-0.3,0.4-0.7,0.7-1
		c0.9-1.2,1.7-2.4,2.5-3.6c0.5-0.7,1-1.6,1.6-2.3c0.3-0.3,0.5-0.6,0.7-1s0.5-0.7,0.7-1c0.4-0.7,0.9-1.3,1.4-2
		c0.4-0.7,0.9-1.3,1.4-1.9c0.2-0.3,0.3-0.5,0.5-0.8c0.5-0.6,1-1.2,1.4-1.9c0.3-0.4,0.5-0.8,0.7-1.2c0.6-0.9,1.3-1.7,1.8-2.6
		c0.8-1.2,1.6-2.3,2.4-3.4c0.7-1,1.3-2,2-2.9c0.8-1.1,1.6-2.3,2.4-3.4c0.5-0.7,0.9-1.3,1.3-2C68.9,0.2,69,0.1,69.1,0
		c1.4,0,2.9,0,4.4,0c3.1,5.2,6.3,10.5,9.4,15.7c0.5-0.7,1.1-1.4,1.6-2.1c0.6-0.8,1.1-1.7,1.7-2.5c0.5-0.6,0.9-1.3,1.4-2
		c0.4-0.7,0.9-1.3,1.4-2c0.3-0.5,0.7-1,1-1.5c0.6-0.9,1.1-1.7,1.8-2.6c0.5-0.7,1-1.4,1.5-2.2c0.2-0.3,0.4-0.6,0.7-0.9
		c1.8,0,3.5,0,5.3,0c0,11.9,0,23.9,0,35.9c0.6-0.7,1.2-1.2,1.7-1.9c0.1-0.1,0.2-0.2,0.3-0.3c0.5-0.6,1.1-1.1,1.6-1.7
		c0.7-0.8,1.4-1.6,2.1-2.4s1.4-1.6,2.1-2.4c0.6-0.7,1.2-1.4,1.8-2.1c0.7-0.8,1.4-1.7,2.2-2.5c0.7-0.8,1.3-1.6,2-2.3
		c0.7-0.8,1.3-1.6,2-2.3c0.4-0.4,0.7-0.8,1-1.2c0.3-0.4,0.7-0.8,1.1-1.2c0.2-0.3,0.4-0.5,0.7-0.8c0.2-0.3,0.4-0.5,0.7-0.8
		c0.2-0.3,0.5-0.5,0.7-0.8c0.6-0.8,1.3-1.5,2-2.3c0.7-0.9,1.5-1.7,2.2-2.6c0.5-0.6,1-1.1,1.4-1.6c0.5-0.6,1-1.1,1.4-1.7
		c0.3-0.1,0.4-0.4,0.6-0.6s0.4-0.5,0.6-0.7s0.4-0.4,0.6-0.7c0.3-0.3,0.6-0.6,0.8-1c0.3-0.3,0.6-0.6,0.8-1s0.6-0.6,0.9-1
		c1.4,0,2.9,0,4.3,0c2.6,5.1,5.1,10.3,7.7,15.4c0.5-0.1,0.4-0.7,0.8-0.8c0.7-1.2,1.5-2.2,2.3-3.4s1.6-2.3,2.4-3.5
		c0.5-0.7,0.9-1.4,1.4-2s0.9-1.4,1.4-2c0.9-1.1,1.6-2.3,2.5-3.4c0.1-0.1,0.1-0.2,0.1-0.3c1.8,0,3.6,0,5.5,0c0,12,0,24.1,0,36.1
		c12.1-11.9,24.2-24,36.2-36c1.6,0,3,0,4.4,0c0.1,0.1,0.1,0.3,0.2,0.4c0.7,1.1,1.2,2.3,1.9,3.4c0.3,0.5,0.5,1,0.8,1.5
		c0.7,1.1,1.2,2.3,1.9,3.4c0.2,0.4,0.4,0.8,0.6,1.1c0.3,0.6,0.7,1.2,1,1.7c0.5,0.9,1,1.9,1.6,2.8c0.3,0.5,0.6,1.1,0.9,1.6
		c0.6,1,1.2,2,1.7,3c0.4,0.7,0.8,1.5,1.2,2.2s0.8,1.3,1.1,2c0.4,0.7,1,1.4,1.2,2.2c0.7,0.8,1,1.9,1.7,2.8c0.2,0.8,0.9,1.4,1.1,2.2
		c0.1,0.4,0.5,0.7,0.7,1c0.3,0.9,1,1.6,1.3,2.5C218.6,33.9,218.7,34,218.8,34.1z"/>
	<path d="M243.6,42.9c-1.6,0-3.2,0-4.9,0c0-14.3,0-28.5,0-42.8c1.6,0,3.2,0,4.9,0C243.6,14.3,243.6,28.6,243.6,42.9z"/>
	<path d="M256.9,42.9c-1.6,0-3.2,0-4.9,0c0-14.3,0-28.5,0-42.8c1.6,0,3.2,0,4.9,0C256.9,14.3,256.9,28.6,256.9,42.9z"/>
	<path d="M265.3,0c1.6,0,3.1,0,4.7,0c0,14.3,0,28.5,0,42.8c-1.5,0-3,0-4.5,0c-0.1-0.1-0.1-0.1-0.2-0.2
		C265.3,28.5,265.3,14.3,265.3,0z"/>
</g>
</svg>
