<?xml version="1.0" encoding="utf-8"?>
<!-- Generator: Adobe Illustrator 25.2.1, SVG Export Plug-In . SVG Version: 6.00 Build 0)  -->
<svg version="1.1" id="svg3562" xmlns:svg="http://www.w3.org/2000/svg"
	 xmlns="http://www.w3.org/2000/svg" xmlns:xlink="http://www.w3.org/1999/xlink" x="0px" y="0px" viewBox="0 0 608.7 61.9"
	 style="enable-background:new 0 0 608.7 61.9;" xml:space="preserve">
<g id="layer1" transform="translate(-141.35989,-544.2625)">
	<path id="path166" d="M680,602.7c-2.6,1.1-5.5,1.7-8.8,1.7c-5.5,0-11.5-2.3-11.5-9.4c0-2.9,0.8-5.5,5.5-9.4c4.5-3.7,7.1-5.4,7.1-8
		c0-2.5-1.5-4.1-3.8-4.1c-3.2,0-4.9,3-5.6,5.7h-1.6v-7.1c3-0.8,5.6-1.1,8-1.1c5.7,0,10.2,3,10.2,8.1c0,3.7-1.3,5.5-6.4,9.4
		c-4.5,3.5-6.2,5-6.2,8.3c0,2.4,1.5,5.1,4.7,5.1c3.3,0,6.2-3,6.7-7.1h1.6L680,602.7L680,602.7z M744.5,545.3l0.1,50.8
		c0,1.7,0,2.7,0.2,3.9c0.2,1.1,2.3,1.5,4.3,1.7v2h-16.8v-2c2-0.2,4-0.5,4.2-1.7s0.2-2.2,0.2-3.9v-9.9l-11.9,17.4h-10.4v-0.8
		c2.8-2.7,9.8-12.1,15.2-18.8l-6.6-6.4c-2-1.9-4.1-3.5-6.3-4v-1.7h12.7v1.7c-2.7-0.1-6,0.7-3.8,3.2c2.5,3,6.6,7.7,11.1,7.9
		l-0.1-39.4H744.5L744.5,545.3z M653.8,602.7c-2.6,1.1-5.5,1.7-8.8,1.7c-5.5,0-11.5-2.3-11.5-9.4c0-2.9,0.8-5.5,5.5-9.4
		c4.5-3.7,7.1-5.4,7.1-8c0-2.5-1.5-4.1-3.8-4.1c-3.2,0-4.9,3-5.6,5.7h-1.6v-7c3-0.8,5.6-1.1,8-1.1c5.7,0,10.2,3,10.2,8.1
		c0,3.7-1.3,5.5-6.4,9.4c-4.5,3.5-6.2,5-6.2,8.3c0,2.4,1.5,5.1,4.7,5.1c3.3,0,6.2-3,6.7-7.1h1.6L653.8,602.7L653.8,602.7z
		 M609.4,583.8c0-7.7,3-10.4,6.3-10.4c2.8,0,5,3,5,6.9c0,2.7-1.3,3.5-2.4,3.5H609.4L609.4,583.8z M627.5,586.2v-1.8
		c0-7.8-3.8-13.2-11.3-13.2c-10.9,0-14.8,8.8-14.8,16.4c0,5.4,2.5,10.6,4.5,12.6c4.9,5,8.6,4.3,11.6,4.3h2l8-4.8l-1.2-2.3
		c-1.5,1-3.7,2.7-7.2,2.7c-8.4,0-9.7-9.8-9.7-13.9H627.5L627.5,586.2z M593.5,545.5v50.8c0,1.7,0,2.7,0.2,3.9
		c0.2,1.1,2.3,1.5,4.3,1.7v2h-16.8v-2c2-0.2,4-0.5,4.2-1.7s0.2-2.2,0.2-3.9v-50.7L593.5,545.5L593.5,545.5z M575.3,603.8v-9.3v-23.1
		c-3.3,1.7-8.3,2.5-12.3,2.5v2c3,0,4.5,0.4,4.5,3.6v8.4c0,10-2.5,12.3-6.3,12.3c-4.4,0-4.9-3.8-4.9-8.6v-20.3
		c-3.3,1.7-8.3,2.5-12.2,2.5v2c3,0,4.5,0.4,4.5,3.6v13.8c0,6.3,1.6,11.2,8.1,11.2c2,0,4-0.5,5.9-1.7l4.9-3v3.9L575.3,603.8
		L575.3,603.8z M511,545.6v50.8c0,1.7,0,2.7-0.2,3.9c-0.2,1.1-2.3,1.5-4.3,1.7v2H523v-2c-1.7-0.2-3.7-0.5-4-1.7
		c-0.2-1.2-0.2-2.2-0.2-3.9v-8.2c0-8.6,2.1-12.8,7-12.8c4.5,0,5,4.4,5,8.8v12.1c0,1.7,0,2.7-0.2,3.9c-0.2,1.1-2.2,1.5-3.8,1.7v2
		h16.3v-2c-2-0.2-4.1-0.5-4.3-1.7s-0.2-2.2-0.2-3.9v-13.8c0-6.6-1.8-11.2-8.3-11.2c-4.8,0-9,2.4-11.5,5.6v-31.3L511,545.6L511,545.6
		z M502.2,597.3c-1.8,1.3-4.1,3-7.5,3c-7.1,0-9.7-7.5-9.7-14.2c0-8.1,3.7-12.5,7.6-12.5c2,0,3.5,1.1,4.7,2.8l2.9,3.9
		c0.2,0.3,0.6,0.1,1-0.2l2-1.3c0.3-0.2,0.3-0.5,0.2-0.9l-1.7-4.6c-1.7-1.1-4.9-2-8.3-2c-9.2,0-16.2,6.5-16.2,16.4
		c0,4.9,1.9,9.8,4.2,12.3c4.5,5.1,10.2,4.6,13.8,4.6l8.4-5.2L502.2,597.3L502.2,597.3z M451.3,603c2.6,1.1,5.5,1.7,8.8,1.7
		c5.5,0,11.5-2.3,11.5-9.4c0-2.9-0.8-5.5-5.5-9.4c-4.5-3.7-7.1-5.4-7.1-8c0-2.5,1.5-4.1,3.8-4.1c3.2,0,4.9,3,5.6,5.7h1.6v-7.1
		c-3-0.8-5.6-1.1-8-1.1c-5.7,0-10.2,3-10.2,8.1c0,3.7,1.3,5.5,6.4,9.4c4.5,3.5,6.2,5,6.2,8.3c0,2.4-1.5,5.1-4.7,5.1
		c-3.3,0-6.2-3-6.7-7.1h-1.6L451.3,603L451.3,603z M415.1,545.8v50.8c0,1.7,0,2.7-0.2,3.9c-0.2,1.1-2.3,1.5-4.3,1.7v2H427v-2
		c-1.7-0.2-3.7-0.5-4-1.7c-0.2-1.2-0.2-2.2-0.2-3.9v-8.2c0-8.6,2.1-12.8,7-12.8c4.5,0,5,4.4,5,8.8v12.1c0,1.7,0,2.7-0.2,3.9
		c-0.2,1.1-2.2,1.5-3.8,1.7v2h16.3v-2c-2-0.2-4.1-0.5-4.3-1.7c-0.2-1.2-0.2-2.2-0.2-3.9v-13.8c0-6.6-1.8-11.2-8.3-11.2
		c-4.8,0-9,2.4-11.5,5.6v-31.3L415.1,545.8L415.1,545.8z M406.8,597.4c-1.8,1.3-4.1,3-7.5,3c-7.1,0-9.7-7.5-9.7-14.2
		c0-8.1,3.7-12.4,7.6-12.4c2,0,3.5,1.1,4.7,2.8l2.9,3.9c0.2,0.3,0.6,0.1,1-0.2l2-1.3c0.3-0.2,0.3-0.5,0.2-0.9l-1.7-4.6
		c-1.7-1.1-4.9-2-8.3-2c-9.2,0-16.2,6.5-16.2,16.4c0,4.9,1.9,9.8,4.2,12.3c4.5,5.1,10.2,4.6,13.8,4.6l8.4-5.2L406.8,597.4
		L406.8,597.4z M311,545.9v50.8c0,1.7,0,2.7-0.2,3.9c-0.2,1.1-2.3,1.5-4.3,1.7v2H323v-2c-1.7-0.2-3.7-0.5-4-1.7
		c-0.2-1.2-0.2-2.2-0.2-3.9v-8.2c0-8.6,2.1-12.8,7-12.8c4.5,0,5,4.4,5,8.8v12.1c0,1.7,0,2.7-0.2,3.9c-0.2,1.1-2.2,1.5-3.8,1.7v2
		h16.3v-2c-2-0.2-4.1-0.5-4.3-1.7c-0.2-1.2-0.2-2.2-0.2-3.9v-13.8c0-6.6-1.8-11.2-8.3-11.2c-4.8,0-9,2.4-11.5,5.6V546L311,545.9
		L311,545.9z M303.4,573.8h-8v-10.6h-2.2c-1.8,1.1-3.8,2.3-5.6,3.6v7h-4.4v3.2h4.4v18c0,8.2,3.2,10,7.8,10l8-3l-0.6-2.4
		c-1.3,0.6-2.6,0.8-4.1,0.8c-4.5,0-3.3-6-3.3-9.5v-13.8h5l3-1.5L303.4,573.8L303.4,573.8z M258.1,603.4c2.6,1.1,5.5,1.7,8.8,1.7
		c5.5,0,11.5-2.4,11.5-9.4c0-2.9-0.8-5.5-5.5-9.4c-4.5-3.7-7.1-5.4-7.1-8c0-2.5,1.5-4.1,3.8-4.1c3.2,0,4.9,3,5.6,5.7h1.6v-7.1
		c-3-0.8-5.6-1.1-8-1.1c-5.7,0-10.2,3-10.2,8.1c0,3.7,1.3,5.5,6.4,9.4c4.5,3.5,6.2,5,6.2,8.3c0,2.4-1.5,5.1-4.7,5.1
		c-3.3,0-6.2-3-6.7-7.1h-1.6L258.1,603.4L258.1,603.4z M229.4,588.7c0-8.6,2.1-12.8,7-12.8c4.5,0,5,4.4,5,8.8v12.1
		c0,1.7,0,2.7-0.2,3.9c-0.2,1.1-2.2,1.5-3.8,1.7v2h16.3v-2c-2-0.2-4.1-0.5-4.3-1.7s-0.2-2.2-0.2-3.9V583c0-6.6-1.8-11.2-8.3-11.2
		c-4.8,0-9,2.4-11.5,5.6V572c-3.3,1.7-8.3,2.5-12.3,2.5v2c3,0,4.5,0.4,4.5,3.6v16.8c0,1.7,0,2.7-0.2,3.9c-0.2,1.1-2.3,1.5-4.3,1.7v2
		h16.4v-2c-1.7-0.2-3.7-0.5-3.9-1.7s-0.2-2.2-0.2-3.9V588.7L229.4,588.7z M210,604.4v-9.3V572c-3.3,1.7-8.3,2.5-12.3,2.5v2
		c3,0,4.5,0.4,4.5,3.6v8.4c0,10-2.5,12.3-6.3,12.3c-4.4,0-4.9-3.8-4.9-8.6V572c-3.3,1.7-8.3,2.5-12.2,2.5v2c3,0,4.5,0.4,4.5,3.6
		v13.8c0,6.3,1.6,11.2,8.1,11.2c2,0,4-0.5,5.9-1.7l4.9-3v3.9h7.8V604.4z M694.9,590.6c0,5.9,2.6,8.9,5.9,8.9c2.6,0,4-2.3,4-5.2
		c0-6-4.1-7.5-9.9-9.5V590.6L694.9,590.6z M687.1,603.6v-9.4v-12c0-7,3.4-11.2,11.7-11.2c3.1,0,6.4,0.8,9,1.8
		c0.6,0.3,1.5,0.6,1.9,2.4l0.8,3c0.2,0.8-0.2,1-0.6,1.3l-2.9,1c-0.5,0.1-0.9,0.1-1-0.5c-1.4-3.3-3.1-6.8-6.2-6.8
		c-3.4,0-4.9,3.7-4.9,8.9l8.3,3c5.6,2.2,9.3,4.2,9.3,10.3c0,5.3-3.3,8.8-7.3,8.8c-2.3,0-4-0.8-5.5-1.8l-4.8-3.6v4.7L687.1,603.6
		L687.1,603.6z M146.9,546.2V597c0,1.7,0,2.7-0.2,3.9c-0.2,1.1-2.3,1.5-4.3,1.7v2h16.8v-2c-2-0.2-4-0.5-4.2-1.7s-0.2-2.2-0.2-3.9
		v-9.9l11.9,17.4h10.4v-0.8c-2.8-2.7-9.8-12.1-15.2-18.8l6.6-6.4c2-1.9,4.1-3.5,6.3-4v-1.7H162v1.7c2.7-0.1,6,0.7,3.8,3.2
		c-2.5,3-6.6,7.7-11.1,7.9v-39.4H146.9L146.9,546.2z M360.4,604.9c9.4,0,16.5-7.4,16.5-17.1c0-10.2-7.3-16.2-15.1-16.2
		c-11.9,0-16.5,10.2-16.5,17.1C345.2,598.1,351.6,604.9,360.4,604.9L360.4,604.9z M360.8,573.9c6.5,0,7.9,10.4,7.9,15.5
		c0,10-3.7,13.3-6.9,13.3c-3.3,0-8.3-2.5-8.3-15.2C353.4,578.3,356.6,573.9,360.8,573.9L360.8,573.9z"/>
</g>
</svg>
