<?xml version="1.0" encoding="utf-8"?>
<!-- Generator: Adobe Illustrator 25.2.1, SVG Export Plug-In . SVG Version: 6.00 Build 0)  -->
<svg version="1.1" id="Ebene_1" xmlns="http://www.w3.org/2000/svg" xmlns:xlink="http://www.w3.org/1999/xlink" x="0px" y="0px"
	 viewBox="0 0 267 56.5" style="enable-background:new 0 0 267 56.5;" xml:space="preserve">
<g>
	<path d="M229.6,48.6c-4.8,0-9.6,0-14.4,0c-0.3-0.1-0.5-0.3-0.6-0.6c-0.2-0.3-0.4-0.5-0.6-0.7c-0.3-0.4-0.7-0.7-1-1.1
		c-0.2-0.2-0.4-0.4-0.6-0.7c-0.2-0.2-0.5-0.4-0.6-0.7c0,0,0,0-0.1-0.1c-0.4-0.4-0.8-0.8-1.2-1.3c-0.5-0.6-1-1.1-1.5-1.7
		c-0.2-0.3-0.5-0.5-0.7-0.8c-0.5-0.6-1.1-1.2-1.6-1.8c-0.5-0.5-0.9-1.1-1.4-1.6c-0.5-0.6-1-1.1-1.5-1.7c-0.2-0.3-0.5-0.5-0.7-0.8
		c-0.5-0.6-1-1.1-1.5-1.7c-0.5-0.5-0.9-1.1-1.4-1.6c-0.5-0.6-1-1.1-1.5-1.7c-0.2-0.3-0.5-0.5-0.7-0.8c-0.5-0.6-1.1-1.2-1.6-1.8
		c-0.3-0.3-0.6-0.6-0.8-0.9c-0.4-0.6-0.9-1.1-1.4-1.6c-0.1-0.1-0.1-0.1-0.2-0.1c0,0,0,0-0.1,0c0,7.9,0,15.7,0,23.6
		c-4.5,0-9,0-13.4,0c0-0.1-0.1-0.1-0.1-0.3c0-0.1,0-0.3,0-0.4c0-13.1,0-26.1,0-39.2c0-0.3,0-0.5,0.2-0.8c5.2,0,10.4,0,15.6,0
		c0.2,0.2,0.5,0.4,0.7,0.7s0.5,0.6,0.7,0.9c0.2,0.3,0.4,0.5,0.6,0.7c0.3,0.5,0.8,0.9,1.1,1.4c0.3,0.4,0.6,0.7,0.9,1.1
		c0.5,0.6,1,1.2,1.5,1.7c0.4,0.5,0.9,1,1.2,1.5c0.2,0.2,0.4,0.4,0.5,0.6c0.4,0.5,0.8,1,1.2,1.5c0.2,0.3,0.5,0.5,0.7,0.8
		c0.3,0.5,0.8,0.9,1.1,1.4c0.3,0.4,0.6,0.7,0.9,1.1c0.4,0.5,0.8,0.9,1.1,1.3c0.2,0.2,0.4,0.4,0.6,0.7c0.2,0.3,0.5,0.6,0.7,0.9
		s0.5,0.5,0.7,0.8c0.3,0.4,0.7,0.9,1,1.3c0.4,0.5,0.9,1,1.2,1.5c0.2,0.2,0.4,0.4,0.5,0.6c0.4,0.5,0.8,1,1.2,1.5
		c0.2,0.3,0.5,0.5,0.7,0.8s0.4,0.6,0.7,0.8c0,0.1,0.1,0.1,0.3,0.2c0-0.2,0-0.4,0-0.5c0-7.6,0-15.1,0-22.7c0-0.1,0-0.2,0-0.3
		c0-0.1,0.1-0.2,0.1-0.3c4.4,0,8.8,0,13.3,0C229.6,21.5,229.6,35,229.6,48.6z"/>
	<path d="M148.9,7.9c0.1,0.1,0.1,0.2,0.2,0.3c0,0.1-0.1,0.3-0.1,0.4c0,2.7,0,5.4,0,8.1c0,0.1,0,0.2,0.1,0.4
		c-0.1,0.1-0.1,0.4-0.1,0.6c-0.2,0.2-0.4,0.1-0.7,0.2c-0.1,0-0.2,0-0.3,0c-8.8,0-17.6,0-26.4,0c-0.2,0-0.4-0.1-0.5,0.1
		c0,1.6,0,3.3,0,5c0.1,0,0.1,0.1,0.3,0.2c8.5,0,17.1,0,25.7,0c0.1,0.1,0.1,0.2,0.2,0.3c0,2.9,0,5.9,0,8.9c-0.1,0.1-0.2,0.1-0.4,0.2
		c-8.5,0-17.1,0-25.6,0c-0.1,0.1-0.2,0.2-0.2,0.2c0,1.8,0,3.6,0,5.5c0.1,0.1,0.2,0.2,0.2,0.2c2.5,0,4.9,0,7.4,0c6.8,0,13.6,0,20.4,0
		c0.2,0,0.4,0,0.6,0.1c0.2,0.5,0.2,0.9,0.2,1.4c0,2.6,0,5.2,0,7.9c0,0.2-0.1,0.4-0.1,0.6c-14.5,0-28.9,0-43.4,0c0-0.2,0-0.3,0-0.5
		c0-13.2,0-26.4,0-39.6c0-0.2,0-0.4,0.1-0.6C120.6,7.9,134.7,7.9,148.9,7.9z"/>
	<path d="M171.7,7.9c0.1,0.1,0.1,0.2,0.2,0.3c0,13.4,0,26.9,0,40.4c-4.9,0-9.7,0-14.6,0c0-13.5,0-27.1,0-40.7
		C162.1,7.9,166.9,7.9,171.7,7.9z"/>
	<g>
		<path d="M89.3,26.9l0.1,0.1c0.1,0.5,0.3,0.9,0.6,1.3c0.3,0.5,0.6,0.9,1.1,1.3c0.4,0.3,0.8,0.6,1.2,0.8c0.7,0.3,1.4,0.4,2.1,0.5
			c0.2,0,0.4,0,0.6,0s0.4-0.1,0.6-0.1c0.3,0,0.5-0.1,0.7-0.1c0.7-0.2,1.3-0.5,1.8-1c0.7-0.6,1.2-1.3,1.6-2.1
			c0.2-0.6,0.4-1.2,0.4-1.9c0-0.4,0-0.8-0.1-1.2c-0.1-0.5-0.3-1-0.5-1.5c-0.1-0.3-0.4-0.6-0.6-0.9s-0.4-0.5-0.6-0.7
			c-0.5-0.4-1-0.7-1.5-1c-0.6-0.3-1.2-0.4-1.8-0.5c-0.2,0-0.3,0-0.5,0c-0.3,0-0.7,0-1.1,0.1c-0.5,0.1-0.9,0.3-1.3,0.5
			c-0.2,0.1-0.3,0.2-0.5,0.3c-0.2,0.1-0.4,0.3-0.6,0.4c-0.4,0.3-0.7,0.7-1,1.2c-0.2,0.3-0.4,0.6-0.5,1c-0.2,0.4-0.3,0.8-0.4,1.3
			c-0.1,0.3,0,0.7,0,1.1C89.2,26.2,89.3,26.6,89.3,26.9z"/>
		<path d="M100,41.7c-0.2-0.8-0.6-1.5-1.1-2.2c-0.4-0.5-1-0.9-1.6-1.2c-0.4-0.2-0.9-0.5-1.4-0.5c-0.2-0.2-0.4-0.1-0.6-0.1
			s-0.4-0.1-0.6-0.1s-0.4,0.1-0.5,0.1c-0.4,0-0.8,0.1-1.1,0.2c-0.7,0.2-1.2,0.5-1.8,0.9c-0.4,0.3-0.7,0.6-0.9,1
			c-0.3,0.4-0.6,0.9-0.8,1.4c-0.2,0.6-0.4,1.1-0.3,1.7c0,0.2,0,0.4,0,0.7s0,0.6,0.1,0.9c0.2,0.4,0.2,0.9,0.5,1.2
			c0.2,0.3,0.4,0.6,0.6,0.9c0.6,0.7,1.3,1.2,2.1,1.6c0.5,0.2,1,0.4,1.5,0.4c0.2,0,0.4,0,0.6,0c0.4,0,0.7,0,1.1,0
			c0.2,0,0.5-0.1,0.7-0.2c0.4-0.1,0.8-0.3,1.2-0.6c0.6-0.4,1.2-0.9,1.6-1.6c0.2-0.4,0.4-0.8,0.6-1.2s0.2-0.9,0.3-1.3
			C100.2,43.3,100.1,42.3,100,41.7z"/>
		<path d="M85.1,47.7c-0.4-0.7-0.9-1.3-1.3-2s-1-1.4-1.4-2.1c-0.5-0.9-1.1-1.7-1.7-2.6c-0.5-0.9-1.1-1.8-1.7-2.6
			c-0.5-0.8-1-1.6-1.6-2.4c-0.4-0.6-0.8-1.3-1.3-2c0.1-0.1,0.1-0.1,0.2-0.2c0.3-0.1,0.6-0.3,0.9-0.4c0.4-0.1,0.7-0.4,1-0.5
			c0.7-0.4,1.4-0.9,2-1.4c0.7-0.6,1.3-1.2,1.8-1.9c0.4-0.5,0.8-1.1,1.1-1.6c0.5-1,0.7-1.4,1.1-2.6c0.2-0.7,0.3-1.3,0.4-2
			c0.1-0.4,0.1-0.7,0.1-1.1c0-0.7,0-1.3-0.1-2v-0.1c-0.1-0.1-0.1-0.3-0.1-0.4s-0.1-0.3-0.1-0.4c0-0.4-0.2-0.7-0.2-1.1
			c0-0.2-0.1-0.5-0.2-0.7s-0.1-0.4-0.2-0.7c-0.2-0.4-0.3-0.8-0.5-1.1S83,15.3,82.8,15s-0.3-0.5-0.5-0.8s-0.5-0.7-0.7-0.9
			c-0.7-0.7-1.4-1.5-2.3-2.1c-0.6-0.4-1.1-0.8-1.7-1.1c-0.5-0.3-1-0.5-1.6-0.7c-0.8-0.3-1.5-0.5-2.3-0.7c-0.5-0.1-1-0.3-1.6-0.4
			c-0.1,0-0.2-0.1-0.3-0.1c-0.1,0-0.3,0-0.4,0c-0.2-0.1-0.5,0-0.7-0.1C70.5,8.1,70.2,8,70,8C59.3,8,48.6,8,38,8c-0.2,0-0.3,0-0.5,0
			c0,13.5,0,27,0,40.5l0.1,0.1c4.9,0,9.8,0,14.7,0c0-0.1,0.1-0.1,0.1-0.2c0-0.1,0.1-0.1,0.1-0.2c-0.1-0.2-0.1-0.4-0.1-0.5
			c0-3.7,0-7.3,0-11c0-0.4,0-0.7,0.2-1.1c0.2,0,0.3-0.1,0.5-0.1c2.4,0,4.9,0,7.3,0c0.1,0,0.2,0,0.2,0c0.2,0.1,0.5,0.1,0.6,0.4
			c0.1,0.3,0.3,0.6,0.5,0.8c0.7,1,1.3,2,1.9,3c0.3,0.5,0.7,1,1,1.5s0.6,1,0.9,1.5c0.6,1,1.3,2,1.9,3c0.5,0.7,0.9,1.4,1.4,2.2
			c0.2,0.3,0.4,0.6,0.7,0.7c5.3,0,10.7,0,16,0l0,0c0,0,0,0,0.1-0.1c0-0.1,0-0.2-0.1-0.2C85.4,48.2,85.2,47.9,85.1,47.7z M69.2,22.5
			c0,0.4-0.2,0.9-0.3,1.3c-0.2,0.4-0.3,0.8-0.6,1.1c-0.4,0.5-0.8,1-1.4,1.3c-0.5,0.3-1,0.5-1.7,0.7C65,27,64.8,27,64.6,27
			c-4.1,0-8.2,0-12.3,0c0-3.1,0-6.3,0-9.4c0.2,0,0.3,0,0.5,0c4.2,0,8.4,0,12.6,0c0.6,0,1.2,0.2,1.8,0.5c0.3,0.2,0.6,0.4,0.9,0.7
			c0.5,0.5,0.8,1.2,1.1,1.9C69.2,21.2,69.2,21.8,69.2,22.5z"/>
	</g>
	<path d="M94.6,20.1c0.2,0,0.4,0,0.5,0c0.6,0.1,1.2,0.2,1.8,0.5c0.6,0.3,1.1,0.6,1.5,1c0.2,0.2,0.4,0.4,0.6,0.7
		c0.2,0.3,0.4,0.6,0.6,0.9c0.2,0.5,0.4,1,0.5,1.5c0.1,0.4,0.1,0.8,0.1,1.2c0,0.6-0.2,1.3-0.4,1.9c-0.3,0.9-0.9,1.5-1.6,2.1
		c-0.5,0.5-1.2,0.8-1.8,1c-0.2,0.1-0.5,0.2-0.7,0.1c-0.2,0-0.4,0.1-0.6,0.1s-0.4,0-0.6,0c-0.7-0.1-1.4-0.2-2.1-0.5
		c-0.4-0.2-0.8-0.5-1.2-0.8c-0.5-0.4-0.8-0.8-1.1-1.3c-0.2-0.4-0.5-0.8-0.6-1.3l-0.1-0.1c0-0.4-0.1-0.7-0.1-1.1s0-0.7,0-1.1
		c0.1-0.4,0.2-0.9,0.4-1.3c0.1-0.3,0.3-0.7,0.5-1c0.3-0.4,0.6-0.8,1-1.2c0.2-0.1,0.3-0.3,0.6-0.4c0.2-0.1,0.3-0.3,0.5-0.3
		c0.4-0.2,0.9-0.4,1.3-0.5C93.9,20.1,94.3,20.1,94.6,20.1z"/>
	<path d="M94.7,48.6c-0.2,0-0.4,0-0.6,0c-0.5,0-1-0.2-1.5-0.4c-0.8-0.3-1.5-0.9-2.1-1.6c-0.2-0.3-0.5-0.6-0.6-0.9
		c-0.2-0.4-0.3-0.8-0.5-1.2c-0.1-0.3-0.1-0.6-0.1-0.9c0-0.2,0-0.4,0-0.7c0-0.6,0.1-1.2,0.3-1.7c0.2-0.5,0.4-0.9,0.8-1.4
		c0.3-0.4,0.6-0.7,0.9-1c0.5-0.4,1.1-0.8,1.8-0.9c0.4-0.1,0.7-0.2,1.1-0.2c0.2,0,0.4-0.1,0.5-0.1c0.2,0,0.4,0,0.6,0.1
		c0.2,0,0.4-0.1,0.6,0.1c0.5,0,1,0.2,1.4,0.5c0.6,0.3,1.2,0.7,1.6,1.2c0.5,0.6,0.9,1.4,1.1,2.2c0.1,0.5,0.3,1.6,0.2,2
		c-0.1,0.4-0.1,0.9-0.3,1.3c-0.2,0.4-0.4,0.8-0.6,1.2c-0.4,0.7-1,1.1-1.6,1.6c-0.4,0.3-0.8,0.4-1.2,0.6c-0.2,0.1-0.5,0.2-0.7,0.2
		C95.4,48.6,95,48.6,94.7,48.6z"/>
</g>
</svg>
